<svg width="15" height="17" viewBox="0 0 15 17" fill="none" xmlns="http://www.w3.org/2000/svg">
<mask id="path-1-outside-1_16_457" maskUnits="userSpaceOnUse" x="0" y="0" width="15" height="17" fill="black">
<rect fill="white" width="15" height="17"/>
<path fill-rule="evenodd" clip-rule="evenodd" d="M13.2887 6.99066C13.5157 6.95589 13.7435 6.92101 13.9646 6.92098V4.94732C13.0336 4.87978 11.6892 3.61816 11.0187 2.97366C10.3482 2.32915 10.1344 1.92123 10.0367 1H8.07282V10.8683C8.07282 12.1362 7.38667 13.8288 6.1089 13.8288C5.49541 13.8288 4.57878 13.2724 4.14498 12.842C3.71117 12.4115 3.16302 11.477 3.16302 10.8683C3.16302 10.4805 3.38552 10.361 3.65919 10.214C3.81507 10.1303 3.98755 10.0377 4.14498 9.88146C4.57878 9.45101 5.49541 8.89464 6.1089 8.89464V6.92098C5.2125 6.92098 3.90834 7.41364 3.16302 7.90781C2.41769 8.40197 1.54213 9.0597 1.19909 9.88146C0.91317 10.5664 0.982393 10.8746 1.11464 11.4635C1.14105 11.5811 1.16998 11.7099 1.19909 11.8551C1.22541 11.9864 1.25168 12.1309 1.27949 12.2839C1.43653 13.1478 1.64258 14.2813 2.18106 14.8156C2.73049 15.3608 3.8803 15.5719 4.74943 15.7315C4.88295 15.756 5.00986 15.7793 5.12694 15.8024C5.27863 15.8324 5.41179 15.8621 5.53255 15.8891C6.11167 16.0184 6.40559 16.0841 7.09086 15.8024C7.91902 15.4621 8.55677 14.5684 9.05478 13.8288C9.55279 13.0892 10.0367 11.7578 10.0367 10.8683V4.94732C10.399 5.49626 11.4189 6.60901 12.0007 6.92098C12.3879 7.12863 12.8368 7.05988 13.2887 6.99066Z"/>
</mask>
<path fill-rule="evenodd" clip-rule="evenodd" d="M13.2887 6.99066C13.5157 6.95589 13.7435 6.92101 13.9646 6.92098V4.94732C13.0336 4.87978 11.6892 3.61816 11.0187 2.97366C10.3482 2.32915 10.1344 1.92123 10.0367 1H8.07282V10.8683C8.07282 12.1362 7.38667 13.8288 6.1089 13.8288C5.49541 13.8288 4.57878 13.2724 4.14498 12.842C3.71117 12.4115 3.16302 11.477 3.16302 10.8683C3.16302 10.4805 3.38552 10.361 3.65919 10.214C3.81507 10.1303 3.98755 10.0377 4.14498 9.88146C4.57878 9.45101 5.49541 8.89464 6.1089 8.89464V6.92098C5.2125 6.92098 3.90834 7.41364 3.16302 7.90781C2.41769 8.40197 1.54213 9.0597 1.19909 9.88146C0.91317 10.5664 0.982393 10.8746 1.11464 11.4635C1.14105 11.5811 1.16998 11.7099 1.19909 11.8551C1.22541 11.9864 1.25168 12.1309 1.27949 12.2839C1.43653 13.1478 1.64258 14.2813 2.18106 14.8156C2.73049 15.3608 3.8803 15.5719 4.74943 15.7315C4.88295 15.756 5.00986 15.7793 5.12694 15.8024C5.27863 15.8324 5.41179 15.8621 5.53255 15.8891C6.11167 16.0184 6.40559 16.0841 7.09086 15.8024C7.91902 15.4621 8.55677 14.5684 9.05478 13.8288C9.55279 13.0892 10.0367 11.7578 10.0367 10.8683V4.94732C10.399 5.49626 11.4189 6.60901 12.0007 6.92098C12.3879 7.12863 12.8368 7.05988 13.2887 6.99066Z" fill="white"/>
<path d="M13.9646 6.92098L13.9646 7.12098L14.1646 7.12095V6.92098H13.9646ZM13.2887 6.99066L13.319 7.18835L13.2887 6.99066ZM13.9646 4.94732H14.1646V4.7613L13.9791 4.74784L13.9646 4.94732ZM11.0187 2.97366L10.8801 3.11785H10.8801L11.0187 2.97366ZM10.0367 1L10.2356 0.978924L10.2167 0.8H10.0367V1ZM8.07282 1V0.8H7.87282V1H8.07282ZM3.65919 10.214L3.56457 10.0378L3.65919 10.214ZM4.14498 9.88146L4.28585 10.0234L4.14498 9.88146ZM6.1089 8.89464V9.09464H6.3089V8.89464H6.1089ZM6.1089 6.92098H6.3089V6.72098H6.1089V6.92098ZM3.16302 7.90781L3.27354 8.0745L3.16302 7.90781ZM1.19909 9.88146L1.01453 9.80442L1.19909 9.88146ZM1.11464 11.4635L1.30977 11.4196H1.30977L1.11464 11.4635ZM1.19909 11.8551L1.39519 11.8158H1.39519L1.19909 11.8551ZM1.27949 12.2839L1.47627 12.2482V12.2482L1.27949 12.2839ZM2.18106 14.8156L2.04018 14.9576L2.04018 14.9576L2.18106 14.8156ZM4.74943 15.7315L4.78555 15.5348H4.78554L4.74943 15.7315ZM5.12694 15.8024L5.08821 15.9987L5.12694 15.8024ZM5.53255 15.8891L5.48895 16.0843H5.48895L5.53255 15.8891ZM7.09086 15.8024L7.01483 15.6175H7.01483L7.09086 15.8024ZM9.05478 13.8288L8.88889 13.7171L9.05478 13.8288ZM10.0367 4.94732L10.2037 4.83717L9.83674 4.28108V4.94732H10.0367ZM12.0007 6.92098L12.0952 6.74472L12.0007 6.92098ZM13.9646 6.72098C13.7256 6.72101 13.4825 6.75866 13.2585 6.79296L13.319 7.18835C13.549 7.15313 13.7614 7.121 13.9646 7.12098L13.9646 6.72098ZM13.7646 4.94732V6.92098H14.1646V4.94732H13.7646ZM10.8801 3.11785C11.2157 3.44039 11.7268 3.92428 12.2735 4.33654C12.547 4.54274 12.8332 4.73402 13.1142 4.87885C13.3931 5.02262 13.6793 5.12715 13.9501 5.14679L13.9791 4.74784C13.7844 4.73372 13.5534 4.65522 13.2974 4.5233C13.0436 4.39244 12.7772 4.21537 12.5144 4.01717C11.9885 3.6206 11.4922 3.15143 11.1573 2.82947L10.8801 3.11785ZM9.83786 1.02108C9.88788 1.49311 9.96941 1.85223 10.1342 2.18034C10.2985 2.50775 10.5383 2.78934 10.8801 3.11785L11.1573 2.82947C10.8286 2.51347 10.6262 2.26885 10.4916 2.00086C10.3574 1.73357 10.2832 1.42812 10.2356 0.978924L9.83786 1.02108ZM8.07282 1.2H10.0367V0.8H8.07282V1.2ZM8.27282 10.8683V1H7.87282V10.8683H8.27282ZM6.1089 14.0288C6.84906 14.0288 7.39443 13.5364 7.74381 12.923C8.09408 12.308 8.27282 11.5331 8.27282 10.8683H7.87282C7.87282 11.4714 7.70849 12.1768 7.39623 12.725C7.0831 13.2748 6.64651 13.6288 6.1089 13.6288V14.0288ZM4.0041 12.9839C4.23706 13.2151 4.59113 13.4727 4.96511 13.6731C5.33431 13.8709 5.75227 14.0288 6.1089 14.0288V13.6288C5.85204 13.6288 5.50494 13.5085 5.154 13.3205C4.80785 13.135 4.4867 12.8993 4.28585 12.7L4.0041 12.9839ZM2.96302 10.8683C2.96302 11.2217 3.11824 11.6424 3.31432 12.0151C3.51276 12.3922 3.76959 12.7512 4.0041 12.9839L4.28585 12.7C4.08656 12.5022 3.85241 12.1788 3.66832 11.8289C3.48187 11.4745 3.36302 11.1236 3.36302 10.8683H2.96302ZM3.56457 10.0378C3.43513 10.1073 3.27871 10.189 3.16193 10.3147C3.03387 10.4526 2.96302 10.6299 2.96302 10.8683H3.36302C3.36302 10.7189 3.40341 10.6425 3.45502 10.5869C3.51791 10.5192 3.60958 10.4677 3.75381 10.3902L3.56457 10.0378ZM4.0041 9.7395C3.86987 9.87269 3.72189 9.95332 3.56457 10.0378L3.75381 10.3902C3.90826 10.3073 4.10523 10.2027 4.28585 10.0234L4.0041 9.7395ZM6.1089 8.69464C5.75227 8.69464 5.33431 8.85254 4.96511 9.05033C4.59113 9.25069 4.23706 9.50834 4.0041 9.7395L4.28585 10.0234C4.4867 9.82413 4.80785 9.58837 5.154 9.40292C5.50494 9.21492 5.85204 9.09464 6.1089 9.09464V8.69464ZM5.9089 6.92098V8.89464H6.3089V6.92098H5.9089ZM3.27354 8.0745C3.62953 7.83846 4.12617 7.59859 4.64506 7.41796C5.16565 7.23674 5.69199 7.12098 6.1089 7.12098V6.72098C5.62941 6.72098 5.05548 6.85155 4.51355 7.0402C3.96994 7.22944 3.44183 7.48298 3.0525 7.74112L3.27354 8.0745ZM1.38366 9.95851C1.53988 9.58426 1.82221 9.2372 2.16614 8.91848C2.5092 8.60056 2.90385 8.3196 3.27354 8.0745L3.0525 7.74112C2.67686 7.99017 2.26106 8.28516 1.89425 8.62509C1.52831 8.96421 1.20134 9.3569 1.01453 9.80442L1.38366 9.95851ZM1.30977 11.4196C1.24251 11.1202 1.19836 10.9192 1.20005 10.7101C1.20168 10.5072 1.24736 10.285 1.38366 9.95851L1.01453 9.80442C0.864908 10.1628 0.802232 10.4373 0.800059 10.7069C0.797935 10.9704 0.854514 11.2179 0.919496 11.5073L1.30977 11.4196ZM1.39519 11.8158C1.36557 11.668 1.33616 11.5371 1.30977 11.4196L0.919496 11.5073C0.94594 11.625 0.974392 11.7517 1.003 11.8944L1.39519 11.8158ZM1.47627 12.2482C1.44854 12.0956 1.42193 11.9492 1.39519 11.8158L1.003 11.8944C1.02889 12.0236 1.05483 12.1663 1.08272 12.3197L1.47627 12.2482ZM2.32193 14.6736C2.08908 14.4426 1.91463 14.0654 1.77868 13.6155C1.64408 13.1701 1.55515 12.6821 1.47627 12.2482L1.08272 12.3197C1.16088 12.7496 1.25348 13.2603 1.39578 13.7312C1.53674 14.1976 1.73455 14.6543 2.04018 14.9576L2.32193 14.6736ZM4.78554 15.5348C4.34905 15.4547 3.85552 15.3638 3.40337 15.2268C2.94691 15.0884 2.56097 14.9108 2.32193 14.6736L2.04018 14.9576C2.35058 15.2656 2.81426 15.4662 3.28734 15.6096C3.76473 15.7543 4.28067 15.8488 4.71331 15.9282L4.78554 15.5348ZM5.16567 15.6062C5.04703 15.5828 4.91876 15.5593 4.78555 15.5348L4.71331 15.9282C4.84714 15.9528 4.97268 15.9759 5.08821 15.9987L5.16567 15.6062ZM5.57615 15.6939C5.4555 15.667 5.3201 15.6367 5.16567 15.6062L5.08821 15.9987C5.23716 16.0281 5.36808 16.0573 5.48895 16.0843L5.57615 15.6939ZM7.01483 15.6175C6.68706 15.7522 6.468 15.7977 6.26963 15.7999C6.06557 15.8022 5.87078 15.7597 5.57614 15.6939L5.48895 16.0843C5.77344 16.1478 6.01517 16.2028 6.27417 16.1999C6.53885 16.1969 6.80939 16.1344 7.16689 15.9874L7.01483 15.6175ZM8.88889 13.7171C8.64024 14.0863 8.36319 14.4841 8.04851 14.8309C7.73322 15.1784 7.39031 15.4631 7.01483 15.6175L7.16689 15.9874C7.61957 15.8014 8.00961 15.4691 8.34474 15.0997C8.68049 14.7297 8.97132 14.3108 9.22068 13.9405L8.88889 13.7171ZM9.83674 10.8683C9.83674 11.2824 9.72287 11.8142 9.54325 12.3401C9.36412 12.8646 9.12567 13.3654 8.88889 13.7171L9.22068 13.9405C9.48191 13.5526 9.73444 13.0179 9.92178 12.4694C10.1086 11.9223 10.2367 11.3437 10.2367 10.8683H9.83674ZM9.83674 4.94732V10.8683H10.2367V4.94732H9.83674ZM12.0952 6.74472C11.8342 6.60477 11.4524 6.26901 11.0802 5.884C10.7117 5.50285 10.3754 5.09736 10.2037 4.83717L9.86981 5.05747C10.0603 5.34622 10.4151 5.77158 10.7926 6.16203C11.1664 6.54862 11.5854 6.92522 11.9061 7.09723L12.0952 6.74472ZM13.2585 6.79296C12.7905 6.86464 12.4131 6.91519 12.0952 6.74472L11.9061 7.09723C12.3627 7.34208 12.8831 7.25512 13.319 7.18835L13.2585 6.79296Z" fill="white" mask="url(#path-1-outside-1_16_457)"/>
</svg>
