<svg width="19" height="22" viewBox="0 0 19 22" fill="none" xmlns="http://www.w3.org/2000/svg">
<rect x="0.984375" y="5.5" width="17" height="16" rx="1.5" stroke="black"/>
<path d="M4.98681 9C4.98681 9.27614 5.21067 9.5 5.48681 9.5C5.76296 9.5 5.98681 9.27614 5.98681 9L4.98681 9ZM12.9844 8.99789C12.9846 9.27403 13.2087 9.49768 13.4848 9.49743C13.761 9.49718 13.9846 9.27312 13.9844 8.99697L12.9844 8.99789ZM5.98681 9C5.98681 7.51231 5.93208 5.5994 6.3776 4.0474C6.59763 3.2809 6.92829 2.64912 7.40922 2.21045C7.8794 1.78159 8.53367 1.5 9.48322 1.5V0.5C8.31543 0.5 7.41147 0.854892 6.73532 1.47163C6.06992 2.07856 5.66615 2.9015 5.41642 3.77148C4.9224 5.49245 4.98681 7.57953 4.98681 9L5.98681 9ZM9.48322 1.5C10.3612 1.5 10.9861 1.78698 11.4516 2.235C11.9299 2.69517 12.2707 3.35568 12.5064 4.14253C12.9809 5.72631 12.9831 7.64998 12.9844 8.99789L13.9844 8.99697C13.9832 7.67907 13.9882 5.60402 13.4643 3.85554C13.2009 2.97626 12.7923 2.13725 12.145 1.51443C11.4852 0.879469 10.6085 0.5 9.48322 0.5V1.5Z" fill="black"/>
<circle cx="5.48438" cy="10" r="1" fill="black"/>
<circle cx="13.4844" cy="10" r="1" fill="black"/>
</svg>
